<?xml version="1.0" encoding="utf-8"?>

<!-- License Agreement at http://iconmonstr.com/license/ -->

<!DOCTYPE svg PUBLIC "-//W3C//DTD SVG 1.1//EN" "http://www.w3.org/Graphics/SVG/1.1/DTD/svg11.dtd">
<svg version="1.1" xmlns="http://www.w3.org/2000/svg" xmlns:xlink="http://www.w3.org/1999/xlink" x="0px" y="0px"
	 width="512px" height="512px" viewBox="0 0 512 512" style="enable-background:new 0 0 512 512;" xml:space="preserve">
<path id="code-fork-8-icon" d="M135.833,362.152V167.015c19.958-7.091,34.333-25.951,34.333-48.349c0-28.449-23.051-51.5-51.5-51.5
	c-28.448,0-51.5,23.051-51.5,51.5c0,22.397,14.376,41.257,34.334,48.349v195.137c-19.958,7.091-34.334,25.951-34.334,48.348
	c0,28.449,23.052,51.5,51.5,51.5c28.449,0,51.5-23.051,51.5-51.5C170.166,388.104,155.791,369.243,135.833,362.152z M87.77,118.667
	c0-17.041,13.856-30.896,30.896-30.896c17.041,0,30.897,13.856,30.897,30.896c0,17.041-13.856,30.897-30.897,30.897
	C101.626,149.563,87.77,135.708,87.77,118.667z M118.666,441.396c-17.04,0-30.896-13.863-30.896-30.896s13.856-30.896,30.896-30.896
	c17.041,0,30.897,13.863,30.897,30.896S135.707,441.396,118.666,441.396z M410.5,362.152V170.167
	c0-37.862-30.812-68.667-68.666-68.667h-51.5V50l-68.668,68.667l68.668,68.667v-51.5h51.5c18.943,0,34.332,15.398,34.332,34.333
	v191.986c-19.949,7.091-34.332,25.951-34.332,48.348c0,28.449,23.051,51.5,51.5,51.5c28.448,0,51.5-23.051,51.5-51.5
	C444.834,388.104,430.449,369.243,410.5,362.152z M393.334,441.396c-17.033,0-30.897-13.863-30.897-30.896
	s13.864-30.896,30.897-30.896c17.031,0,30.896,13.863,30.896,30.896S410.365,441.396,393.334,441.396z"/>
</svg>
